%TF.GenerationSoftware,KiCad,Pcbnew,9.0.7-9.0.7~ubuntu24.04.1*%
%TF.CreationDate,2026-03-11T01:42:57-04:00*%
%TF.ProjectId,SuperAudioBoard,53757065-7241-4756-9469-6f426f617264,rev?*%
%TF.SameCoordinates,Original*%
%TF.FileFunction,Soldermask,Top*%
%TF.FilePolarity,Negative*%
%FSLAX46Y46*%
G04 Gerber Fmt 4.6, Leading zero omitted, Abs format (unit mm)*
G04 Created by KiCad (PCBNEW 9.0.7-9.0.7~ubuntu24.04.1) date 2026-03-11 01:42:57*
%MOMM*%
%LPD*%
G01*
G04 APERTURE LIST*
G04 Aperture macros list*
%AMRoundRect*
0 Rectangle with rounded corners*
0 $1 Rounding radius*
0 $2 $3 $4 $5 $6 $7 $8 $9 X,Y pos of 4 corners*
0 Add a 4 corners polygon primitive as box body*
4,1,4,$2,$3,$4,$5,$6,$7,$8,$9,$2,$3,0*
0 Add four circle primitives for the rounded corners*
1,1,$1+$1,$2,$3*
1,1,$1+$1,$4,$5*
1,1,$1+$1,$6,$7*
1,1,$1+$1,$8,$9*
0 Add four rect primitives between the rounded corners*
20,1,$1+$1,$2,$3,$4,$5,0*
20,1,$1+$1,$4,$5,$6,$7,0*
20,1,$1+$1,$6,$7,$8,$9,0*
20,1,$1+$1,$8,$9,$2,$3,0*%
G04 Aperture macros list end*
%ADD10C,5.600000*%
%ADD11RoundRect,0.250000X-0.600000X-0.725000X0.600000X-0.725000X0.600000X0.725000X-0.600000X0.725000X0*%
%ADD12O,1.700000X1.950000*%
%ADD13RoundRect,0.250000X-0.450000X0.262500X-0.450000X-0.262500X0.450000X-0.262500X0.450000X0.262500X0*%
%ADD14RoundRect,0.250000X0.450000X-0.262500X0.450000X0.262500X-0.450000X0.262500X-0.450000X-0.262500X0*%
%ADD15RoundRect,0.100000X0.100000X-0.712500X0.100000X0.712500X-0.100000X0.712500X-0.100000X-0.712500X0*%
%ADD16RoundRect,0.237500X0.237500X-0.300000X0.237500X0.300000X-0.237500X0.300000X-0.237500X-0.300000X0*%
%ADD17R,1.700000X1.700000*%
%ADD18C,1.700000*%
%ADD19RoundRect,0.237500X-0.237500X0.300000X-0.237500X-0.300000X0.237500X-0.300000X0.237500X0.300000X0*%
%ADD20RoundRect,0.237500X-0.300000X-0.237500X0.300000X-0.237500X0.300000X0.237500X-0.300000X0.237500X0*%
%ADD21RoundRect,0.250000X0.475000X-0.337500X0.475000X0.337500X-0.475000X0.337500X-0.475000X-0.337500X0*%
%ADD22RoundRect,0.250000X0.262500X0.450000X-0.262500X0.450000X-0.262500X-0.450000X0.262500X-0.450000X0*%
%ADD23RoundRect,0.250000X-0.337500X-0.475000X0.337500X-0.475000X0.337500X0.475000X-0.337500X0.475000X0*%
%ADD24RoundRect,0.218750X-0.381250X0.218750X-0.381250X-0.218750X0.381250X-0.218750X0.381250X0.218750X0*%
%ADD25RoundRect,0.250000X-0.262500X-0.450000X0.262500X-0.450000X0.262500X0.450000X-0.262500X0.450000X0*%
%ADD26RoundRect,0.250000X-0.475000X0.337500X-0.475000X-0.337500X0.475000X-0.337500X0.475000X0.337500X0*%
%ADD27RoundRect,0.150000X0.825000X0.150000X-0.825000X0.150000X-0.825000X-0.150000X0.825000X-0.150000X0*%
%ADD28RoundRect,0.218750X0.381250X-0.218750X0.381250X0.218750X-0.381250X0.218750X-0.381250X-0.218750X0*%
%ADD29RoundRect,0.218750X-0.218750X-0.256250X0.218750X-0.256250X0.218750X0.256250X-0.218750X0.256250X0*%
%ADD30RoundRect,0.250000X0.550000X-0.550000X0.550000X0.550000X-0.550000X0.550000X-0.550000X-0.550000X0*%
%ADD31C,1.600000*%
%ADD32RoundRect,0.218750X0.218750X0.381250X-0.218750X0.381250X-0.218750X-0.381250X0.218750X-0.381250X0*%
%ADD33RoundRect,0.237500X0.300000X0.237500X-0.300000X0.237500X-0.300000X-0.237500X0.300000X-0.237500X0*%
%ADD34C,1.400000*%
%ADD35RoundRect,0.150000X0.150000X-0.825000X0.150000X0.825000X-0.150000X0.825000X-0.150000X-0.825000X0*%
%ADD36RoundRect,0.250000X-0.550000X-0.550000X0.550000X-0.550000X0.550000X0.550000X-0.550000X0.550000X0*%
%ADD37RoundRect,0.100000X-0.712500X-0.100000X0.712500X-0.100000X0.712500X0.100000X-0.712500X0.100000X0*%
%ADD38RoundRect,0.218750X0.218750X0.256250X-0.218750X0.256250X-0.218750X-0.256250X0.218750X-0.256250X0*%
%ADD39RoundRect,0.100000X-0.637500X-0.100000X0.637500X-0.100000X0.637500X0.100000X-0.637500X0.100000X0*%
%ADD40RoundRect,0.150000X-0.825000X-0.150000X0.825000X-0.150000X0.825000X0.150000X-0.825000X0.150000X0*%
%ADD41RoundRect,0.243750X-0.243750X-0.456250X0.243750X-0.456250X0.243750X0.456250X-0.243750X0.456250X0*%
%ADD42RoundRect,0.150000X0.875000X0.150000X-0.875000X0.150000X-0.875000X-0.150000X0.875000X-0.150000X0*%
%ADD43RoundRect,0.162500X0.650000X0.162500X-0.650000X0.162500X-0.650000X-0.162500X0.650000X-0.162500X0*%
%ADD44RoundRect,0.218750X-0.256250X0.218750X-0.256250X-0.218750X0.256250X-0.218750X0.256250X0.218750X0*%
%ADD45C,2.400000*%
%ADD46R,2.000000X2.000000*%
%ADD47C,2.000000*%
%ADD48RoundRect,0.218750X-0.218750X-0.381250X0.218750X-0.381250X0.218750X0.381250X-0.218750X0.381250X0*%
%ADD49C,4.318000*%
%ADD50RoundRect,0.250000X0.750000X-1.000000X0.750000X1.000000X-0.750000X1.000000X-0.750000X-1.000000X0*%
%ADD51RoundRect,0.250000X0.750000X-1.025000X0.750000X1.025000X-0.750000X1.025000X-0.750000X-1.025000X0*%
%ADD52RoundRect,0.218750X0.256250X-0.218750X0.256250X0.218750X-0.256250X0.218750X-0.256250X-0.218750X0*%
%ADD53RoundRect,0.250000X0.337500X0.475000X-0.337500X0.475000X-0.337500X-0.475000X0.337500X-0.475000X0*%
%ADD54C,0.889000*%
%ADD55C,0.457200*%
%TA.AperFunction,Profile*%
%ADD56C,0.254000*%
%TD*%
G04 APERTURE END LIST*
D10*
%TO.C,H1*%
X98500000Y-134700000D03*
%TD*%
D11*
%TO.C,J12*%
X97100000Y-117600000D03*
D12*
X99600000Y-117600000D03*
X102100000Y-117600000D03*
X104600000Y-117600000D03*
X107100000Y-117600000D03*
X109600000Y-117600000D03*
%TD*%
D13*
%TO.C,R58*%
X118600000Y-109612500D03*
X118600000Y-107787500D03*
%TD*%
D14*
%TO.C,R78*%
X142050000Y-117062500D03*
X142050000Y-115237500D03*
%TD*%
D15*
%TO.C,U8*%
X181775000Y-102762500D03*
X182425000Y-102762500D03*
X183075000Y-102762500D03*
X183725000Y-102762500D03*
X183725000Y-98537500D03*
X183075000Y-98537500D03*
X182425000Y-98537500D03*
X181775000Y-98537500D03*
%TD*%
D16*
%TO.C,C26*%
X136550000Y-106512500D03*
X136550000Y-104787500D03*
%TD*%
D17*
%TO.C,J1*%
X180750000Y-124150000D03*
D18*
X183290000Y-124150000D03*
X185830000Y-124150000D03*
%TD*%
D19*
%TO.C,C42*%
X148600000Y-93137500D03*
X148600000Y-94862500D03*
%TD*%
D20*
%TO.C,C32*%
X146187500Y-108050000D03*
X147912500Y-108050000D03*
%TD*%
D21*
%TO.C,C16*%
X175250000Y-107437500D03*
X175250000Y-105362500D03*
%TD*%
D22*
%TO.C,R34*%
X152412500Y-117650000D03*
X150587500Y-117650000D03*
%TD*%
%TO.C,R8*%
X117437500Y-136150000D03*
X115612500Y-136150000D03*
%TD*%
D23*
%TO.C,C50*%
X145212500Y-83550000D03*
X147287500Y-83550000D03*
%TD*%
D24*
%TO.C,FB1*%
X182128700Y-93900000D03*
X182128700Y-96025000D03*
%TD*%
D19*
%TO.C,C5*%
X168350000Y-99012500D03*
X168350000Y-100737500D03*
%TD*%
D25*
%TO.C,R54*%
X124737500Y-106450000D03*
X126562500Y-106450000D03*
%TD*%
D13*
%TO.C,R6*%
X173725000Y-124672500D03*
X173725000Y-126497500D03*
%TD*%
D25*
%TO.C,R2*%
X159475000Y-104125000D03*
X161300000Y-104125000D03*
%TD*%
D26*
%TO.C,C1*%
X164150000Y-99087500D03*
X164150000Y-101162500D03*
%TD*%
D25*
%TO.C,R70*%
X115537500Y-114750000D03*
X117362500Y-114750000D03*
%TD*%
D10*
%TO.C,H3*%
X170500000Y-81700000D03*
%TD*%
D20*
%TO.C,C31*%
X144087500Y-114750000D03*
X145812500Y-114750000D03*
%TD*%
D25*
%TO.C,R12*%
X127637500Y-129750000D03*
X129462500Y-129750000D03*
%TD*%
D14*
%TO.C,R25*%
X157362500Y-96907388D03*
X157362500Y-95082388D03*
%TD*%
%TO.C,R18*%
X144100001Y-100617612D03*
X144100001Y-98792612D03*
%TD*%
D22*
%TO.C,R13*%
X126062500Y-121650000D03*
X124237500Y-121650000D03*
%TD*%
%TO.C,R35*%
X117312500Y-94850000D03*
X115487500Y-94850000D03*
%TD*%
%TO.C,R9*%
X140462500Y-136350000D03*
X138637500Y-136350000D03*
%TD*%
D27*
%TO.C,U10*%
X169925000Y-125855000D03*
X169925000Y-124585000D03*
X169925000Y-123315000D03*
X169925000Y-122045000D03*
X164975000Y-122045000D03*
X164975000Y-123315000D03*
X164975000Y-124585000D03*
X164975000Y-125855000D03*
%TD*%
D25*
%TO.C,R47*%
X124737500Y-85050000D03*
X126562500Y-85050000D03*
%TD*%
%TO.C,R65*%
X121862501Y-128630000D03*
X123687501Y-128630000D03*
%TD*%
%TO.C,R3*%
X182087500Y-105400000D03*
X183912500Y-105400000D03*
%TD*%
D28*
%TO.C,FB2*%
X179750000Y-107462500D03*
X179750000Y-105337500D03*
%TD*%
D23*
%TO.C,C52*%
X132462500Y-125900000D03*
X134537500Y-125900000D03*
%TD*%
D16*
%TO.C,C40*%
X161550000Y-133912500D03*
X161550000Y-132187500D03*
%TD*%
D17*
%TO.C,J5*%
X142750000Y-80650000D03*
D18*
X145290000Y-80650000D03*
%TD*%
D16*
%TO.C,C15*%
X149250000Y-91112500D03*
X149250000Y-89387500D03*
%TD*%
D29*
%TO.C,FB6*%
X130962500Y-123900000D03*
X132537500Y-123900000D03*
%TD*%
D19*
%TO.C,C6*%
X160637500Y-106287500D03*
X160637500Y-108012500D03*
%TD*%
D25*
%TO.C,R61*%
X134725000Y-97850000D03*
X136550000Y-97850000D03*
%TD*%
D19*
%TO.C,C38*%
X129750000Y-117287500D03*
X129750000Y-119012500D03*
%TD*%
%TO.C,C35*%
X134749999Y-122152500D03*
X134749999Y-123877500D03*
%TD*%
D30*
%TO.C,C56*%
X138050000Y-88405113D03*
D31*
X138050000Y-86405113D03*
%TD*%
D13*
%TO.C,R60*%
X130650000Y-108237500D03*
X130650000Y-110062500D03*
%TD*%
D23*
%TO.C,C12*%
X176912500Y-98325000D03*
X178987500Y-98325000D03*
%TD*%
D17*
%TO.C,J7*%
X151000000Y-136125000D03*
D18*
X151000000Y-133585000D03*
%TD*%
D32*
%TO.C,L2*%
X174912500Y-102625000D03*
X172787500Y-102625000D03*
%TD*%
D16*
%TO.C,C22*%
X162725000Y-126412500D03*
X162725000Y-124687500D03*
%TD*%
D14*
%TO.C,R27*%
X161562500Y-94912500D03*
X161562500Y-93087500D03*
%TD*%
D19*
%TO.C,C49*%
X159362500Y-98837500D03*
X159362500Y-100562500D03*
%TD*%
D33*
%TO.C,C80*%
X123637501Y-133130000D03*
X121912501Y-133130000D03*
%TD*%
D16*
%TO.C,C86*%
X113775001Y-126612500D03*
X113775001Y-124887500D03*
%TD*%
D34*
%TO.C,TP2*%
X180500000Y-115900000D03*
X180500000Y-113360000D03*
%TD*%
D13*
%TO.C,R55*%
X113700000Y-112287500D03*
X113700000Y-114112500D03*
%TD*%
D26*
%TO.C,C2*%
X158387500Y-106362500D03*
X158387500Y-108437500D03*
%TD*%
D14*
%TO.C,R71*%
X111275000Y-129907500D03*
X111275000Y-128082500D03*
%TD*%
D26*
%TO.C,C13*%
X172137500Y-107837500D03*
X172137500Y-109912500D03*
%TD*%
D17*
%TO.C,J8*%
X120875000Y-136050000D03*
D18*
X123415000Y-136050000D03*
%TD*%
D26*
%TO.C,C28*%
X149350000Y-109912500D03*
X149350000Y-111987500D03*
%TD*%
D33*
%TO.C,C78*%
X130812500Y-97950000D03*
X129087500Y-97950000D03*
%TD*%
%TO.C,C51*%
X143462500Y-85455112D03*
X141737500Y-85455112D03*
%TD*%
D19*
%TO.C,C45*%
X159612500Y-93132388D03*
X159612500Y-94857388D03*
%TD*%
D25*
%TO.C,R30*%
X137737500Y-83550000D03*
X139562500Y-83550000D03*
%TD*%
D17*
%TO.C,J2*%
X162500000Y-112625000D03*
D18*
X162500000Y-115165000D03*
%TD*%
D23*
%TO.C,C43*%
X109487501Y-125880000D03*
X111562501Y-125880000D03*
%TD*%
D25*
%TO.C,R50*%
X124837500Y-102250000D03*
X126662500Y-102250000D03*
%TD*%
D35*
%TO.C,U1*%
X143195000Y-92725000D03*
X144465000Y-92725000D03*
X145735000Y-92725000D03*
X147005000Y-92725000D03*
X147005000Y-87775000D03*
X145735000Y-87775000D03*
X144465000Y-87775000D03*
X143195000Y-87775000D03*
%TD*%
D10*
%TO.C,H2*%
X185500000Y-134700000D03*
%TD*%
D35*
%TO.C,U4*%
X154207500Y-92719888D03*
X155477500Y-92719888D03*
X156747500Y-92719888D03*
X158017500Y-92719888D03*
X158017500Y-87769888D03*
X156747500Y-87769888D03*
X155477500Y-87769888D03*
X154207500Y-87769888D03*
%TD*%
D25*
%TO.C,R1*%
X167937500Y-96875000D03*
X169762500Y-96875000D03*
%TD*%
D33*
%TO.C,C76*%
X119562500Y-97900000D03*
X117837500Y-97900000D03*
%TD*%
D36*
%TO.C,C18*%
X150294888Y-105850000D03*
D31*
X152294888Y-105850000D03*
%TD*%
D19*
%TO.C,C37*%
X134499999Y-131902500D03*
X134499999Y-133627500D03*
%TD*%
D37*
%TO.C,U3*%
X162887500Y-105925000D03*
X162887500Y-106575000D03*
X162887500Y-107225000D03*
X162887500Y-107875000D03*
X167112500Y-107875000D03*
X167112500Y-107225000D03*
X167112500Y-106575000D03*
X167112500Y-105925000D03*
%TD*%
D38*
%TO.C,FB8*%
X157650000Y-85450000D03*
X156075000Y-85450000D03*
%TD*%
D21*
%TO.C,C46*%
X161362500Y-101237500D03*
X161362500Y-99162500D03*
%TD*%
D14*
%TO.C,R11*%
X173750000Y-130312500D03*
X173750000Y-128487500D03*
%TD*%
D25*
%TO.C,R76*%
X138587499Y-126015000D03*
X140412499Y-126015000D03*
%TD*%
D30*
%TO.C,C34*%
X161950000Y-88405113D03*
D31*
X161950000Y-86405113D03*
%TD*%
D25*
%TO.C,R29*%
X159450000Y-96950000D03*
X161275000Y-96950000D03*
%TD*%
D16*
%TO.C,C25*%
X136550000Y-109912500D03*
X136550000Y-108187500D03*
%TD*%
D25*
%TO.C,R64*%
X134725000Y-91450000D03*
X136550000Y-91450000D03*
%TD*%
D22*
%TO.C,R7*%
X174887500Y-119065000D03*
X173062500Y-119065000D03*
%TD*%
D33*
%TO.C,C92*%
X140112500Y-117050000D03*
X138387500Y-117050000D03*
%TD*%
D39*
%TO.C,U5*%
X138387500Y-104325000D03*
X138387500Y-104975000D03*
X138387500Y-105625000D03*
X138387500Y-106275000D03*
X138387500Y-106925000D03*
X138387500Y-107575000D03*
X138387500Y-108225000D03*
X138387500Y-108875000D03*
X138387500Y-109525000D03*
X138387500Y-110175000D03*
X138387500Y-110825000D03*
X138387500Y-111475000D03*
X138387500Y-112125000D03*
X138387500Y-112775000D03*
X144112500Y-112775000D03*
X144112500Y-112125000D03*
X144112500Y-111475000D03*
X144112500Y-110825000D03*
X144112500Y-110175000D03*
X144112500Y-109525000D03*
X144112500Y-108875000D03*
X144112500Y-108225000D03*
X144112500Y-107575000D03*
X144112500Y-106925000D03*
X144112500Y-106275000D03*
X144112500Y-105625000D03*
X144112500Y-104975000D03*
X144112500Y-104325000D03*
%TD*%
D25*
%TO.C,R67*%
X115637500Y-126550000D03*
X117462500Y-126550000D03*
%TD*%
D19*
%TO.C,C48*%
X148350000Y-98842612D03*
X148350000Y-100567612D03*
%TD*%
D25*
%TO.C,R49*%
X124737500Y-100150000D03*
X126562500Y-100150000D03*
%TD*%
D17*
%TO.C,J6*%
X159975000Y-80150000D03*
D18*
X162515000Y-80150000D03*
%TD*%
D40*
%TO.C,U14*%
X123275000Y-108395000D03*
X123275000Y-109665000D03*
X123275000Y-110935000D03*
X123275000Y-112205000D03*
X128225000Y-112205000D03*
X128225000Y-110935000D03*
X128225000Y-109665000D03*
X128225000Y-108395000D03*
%TD*%
D23*
%TO.C,C10*%
X176912500Y-100725000D03*
X178987500Y-100725000D03*
%TD*%
D41*
%TO.C,D1*%
X164212500Y-96875000D03*
X166087500Y-96875000D03*
%TD*%
D23*
%TO.C,C8*%
X185962500Y-98900000D03*
X188037500Y-98900000D03*
%TD*%
D17*
%TO.C,J4*%
X127650000Y-133510000D03*
D18*
X127650000Y-136050000D03*
%TD*%
D25*
%TO.C,R79*%
X144037500Y-116850000D03*
X145862500Y-116850000D03*
%TD*%
D36*
%TO.C,C7*%
X186250000Y-94400000D03*
D31*
X188250000Y-94400000D03*
%TD*%
D16*
%TO.C,C96*%
X136750000Y-126262500D03*
X136750000Y-124537500D03*
%TD*%
D42*
%TO.C,U13*%
X130400000Y-96095000D03*
X130400000Y-94825000D03*
X130400000Y-93555000D03*
X130400000Y-92285000D03*
X130400000Y-91015000D03*
X130400000Y-89745000D03*
X130400000Y-88475000D03*
X130400000Y-87205000D03*
X121100000Y-87205000D03*
X121100000Y-88475000D03*
X121100000Y-89745000D03*
X121100000Y-91015000D03*
X121100000Y-92285000D03*
X121100000Y-93555000D03*
X121100000Y-94825000D03*
X121100000Y-96095000D03*
%TD*%
D22*
%TO.C,R15*%
X146662499Y-131015000D03*
X144837499Y-131015000D03*
%TD*%
D14*
%TO.C,R26*%
X150592500Y-94970000D03*
X150592500Y-93145000D03*
%TD*%
D33*
%TO.C,C81*%
X117387500Y-134250000D03*
X115662500Y-134250000D03*
%TD*%
D21*
%TO.C,C44*%
X150350000Y-101242612D03*
X150350000Y-99167612D03*
%TD*%
D25*
%TO.C,R56*%
X115587500Y-89750000D03*
X117412500Y-89750000D03*
%TD*%
D19*
%TO.C,C24*%
X176150000Y-130437500D03*
X176150000Y-132162500D03*
%TD*%
%TO.C,C36*%
X111525000Y-131882500D03*
X111525000Y-133607500D03*
%TD*%
D34*
%TO.C,TP3*%
X169000000Y-93190000D03*
X169000000Y-90650000D03*
%TD*%
D22*
%TO.C,R4*%
X183912500Y-107716200D03*
X182087500Y-107716200D03*
%TD*%
D19*
%TO.C,C30*%
X146350000Y-109787500D03*
X146350000Y-111512500D03*
%TD*%
D33*
%TO.C,C55*%
X154475000Y-85450000D03*
X152750000Y-85450000D03*
%TD*%
D25*
%TO.C,R74*%
X144837500Y-128650000D03*
X146662500Y-128650000D03*
%TD*%
D14*
%TO.C,R23*%
X146350000Y-96912500D03*
X146350000Y-95087500D03*
%TD*%
D34*
%TO.C,TP4*%
X167750000Y-115900000D03*
X167750000Y-113360000D03*
%TD*%
D25*
%TO.C,R48*%
X124737500Y-98150000D03*
X126562500Y-98150000D03*
%TD*%
D19*
%TO.C,C33*%
X111775000Y-122132500D03*
X111775000Y-123857500D03*
%TD*%
D27*
%TO.C,U18*%
X142224999Y-122670000D03*
X142224999Y-121400000D03*
X142224999Y-120130000D03*
X142224999Y-118860000D03*
X137274999Y-118860000D03*
X137274999Y-120130000D03*
X137274999Y-121400000D03*
X137274999Y-122670000D03*
%TD*%
D17*
%TO.C,J9*%
X143875000Y-136050000D03*
D18*
X146415000Y-136050000D03*
%TD*%
D33*
%TO.C,C90*%
X146612500Y-133150000D03*
X144887500Y-133150000D03*
%TD*%
D20*
%TO.C,C95*%
X147787500Y-114750000D03*
X149512500Y-114750000D03*
%TD*%
D19*
%TO.C,C9*%
X142100001Y-95137500D03*
X142100001Y-96862500D03*
%TD*%
D14*
%TO.C,R17*%
X178450000Y-130312500D03*
X178450000Y-128487500D03*
%TD*%
D25*
%TO.C,R28*%
X148437500Y-96955112D03*
X150262500Y-96955112D03*
%TD*%
D27*
%TO.C,U17*%
X141974999Y-132420000D03*
X141974999Y-131150000D03*
X141974999Y-129880000D03*
X141974999Y-128610000D03*
X137024999Y-128610000D03*
X137024999Y-129880000D03*
X137024999Y-131150000D03*
X137024999Y-132420000D03*
%TD*%
D14*
%TO.C,R22*%
X144100001Y-96912500D03*
X144100001Y-95087500D03*
%TD*%
D25*
%TO.C,R63*%
X134725000Y-93600000D03*
X136550000Y-93600000D03*
%TD*%
%TO.C,R33*%
X157437500Y-83150000D03*
X159262500Y-83150000D03*
%TD*%
D38*
%TO.C,FB7*%
X146637499Y-85455112D03*
X145062499Y-85455112D03*
%TD*%
D36*
%TO.C,C21*%
X125544888Y-125650000D03*
D31*
X127544888Y-125650000D03*
%TD*%
%TO.C,U7*%
X95980000Y-78490000D03*
X95980000Y-81030000D03*
X95980000Y-83570000D03*
X95980000Y-86110000D03*
X95980000Y-88650000D03*
X95980000Y-91190000D03*
X95980000Y-93730000D03*
X95980000Y-96270000D03*
X95980000Y-98810000D03*
X95980000Y-101350000D03*
X95980000Y-103890000D03*
X95980000Y-106430000D03*
X95980000Y-108970000D03*
X95980000Y-111510000D03*
X98520000Y-111510000D03*
X101060000Y-111510000D03*
X103600000Y-111510000D03*
X106140000Y-111510000D03*
X108680000Y-111510000D03*
X111220000Y-111510000D03*
X111220000Y-108970000D03*
X111220000Y-106430000D03*
X111220000Y-103890000D03*
X111220000Y-101350000D03*
X111220000Y-98810000D03*
X111220000Y-96270000D03*
X111220000Y-93730000D03*
X111220000Y-91190000D03*
X111220000Y-88650000D03*
X111220000Y-86110000D03*
X111220000Y-83570000D03*
X111220000Y-81030000D03*
X111220000Y-78490000D03*
X108680000Y-81030000D03*
X108680000Y-106430000D03*
X108680000Y-103890000D03*
X106140000Y-106430000D03*
X106140000Y-103890000D03*
X103600000Y-106430000D03*
X103600000Y-103890000D03*
X101060000Y-106430000D03*
X101060000Y-103890000D03*
X98520000Y-106430000D03*
X98520000Y-103890000D03*
%TD*%
D25*
%TO.C,R62*%
X134725000Y-95750000D03*
X136550000Y-95750000D03*
%TD*%
D26*
%TO.C,C20*%
X134750000Y-111512500D03*
X134750000Y-113587500D03*
%TD*%
D43*
%TO.C,U6*%
X170837500Y-132955000D03*
X170837500Y-131685000D03*
X170837500Y-130415000D03*
X170837500Y-129145000D03*
X163662500Y-129145000D03*
X163662500Y-130415000D03*
X163662500Y-131685000D03*
X163662500Y-132955000D03*
%TD*%
D29*
%TO.C,FB4*%
X151462500Y-110250000D03*
X153037500Y-110250000D03*
%TD*%
D19*
%TO.C,C27*%
X136450000Y-101287500D03*
X136450000Y-103012500D03*
%TD*%
D33*
%TO.C,C91*%
X140362499Y-134350000D03*
X138637499Y-134350000D03*
%TD*%
D26*
%TO.C,C4*%
X155887500Y-106362500D03*
X155887500Y-108437500D03*
%TD*%
D13*
%TO.C,R57*%
X120850000Y-108637500D03*
X120850000Y-110462500D03*
%TD*%
D16*
%TO.C,C39*%
X180750000Y-132162500D03*
X180750000Y-130437500D03*
%TD*%
D25*
%TO.C,R51*%
X124737500Y-82950000D03*
X126562500Y-82950000D03*
%TD*%
%TO.C,R52*%
X124737500Y-80850000D03*
X126562500Y-80850000D03*
%TD*%
D41*
%TO.C,D2*%
X155700000Y-104125000D03*
X157575000Y-104125000D03*
%TD*%
D44*
%TO.C,FB3*%
X134700000Y-108287500D03*
X134700000Y-109862500D03*
%TD*%
D19*
%TO.C,C29*%
X132450000Y-116487500D03*
X132450000Y-118212500D03*
%TD*%
D14*
%TO.C,R19*%
X155112500Y-100612500D03*
X155112500Y-98787500D03*
%TD*%
D36*
%TO.C,C23*%
X148050000Y-124250000D03*
D31*
X150050000Y-124250000D03*
%TD*%
D14*
%TO.C,R80*%
X134249999Y-129927500D03*
X134249999Y-128102500D03*
%TD*%
D22*
%TO.C,R32*%
X143362500Y-83550000D03*
X141537500Y-83550000D03*
%TD*%
D13*
%TO.C,R5*%
X178450000Y-132537500D03*
X178450000Y-134362500D03*
%TD*%
D22*
%TO.C,R69*%
X117362500Y-116850000D03*
X115537500Y-116850000D03*
%TD*%
%TO.C,R14*%
X123687500Y-130995000D03*
X121862500Y-130995000D03*
%TD*%
D27*
%TO.C,U16*%
X119025000Y-122650000D03*
X119025000Y-121380000D03*
X119025000Y-120110000D03*
X119025000Y-118840000D03*
X114075000Y-118840000D03*
X114075000Y-120110000D03*
X114075000Y-121380000D03*
X114075000Y-122650000D03*
%TD*%
D45*
%TO.C,K2*%
X155547500Y-117617500D03*
X155547500Y-122657500D03*
X155547500Y-112577500D03*
D46*
X155547500Y-137777500D03*
D47*
X155547500Y-133997500D03*
%TD*%
D26*
%TO.C,C11*%
X169637500Y-107837500D03*
X169637500Y-109912500D03*
%TD*%
D14*
%TO.C,R20*%
X146350000Y-100617612D03*
X146350000Y-98792612D03*
%TD*%
D22*
%TO.C,R31*%
X162962500Y-83150000D03*
X161137500Y-83150000D03*
%TD*%
D48*
%TO.C,L3*%
X169325000Y-105900000D03*
X171450000Y-105900000D03*
%TD*%
D26*
%TO.C,C3*%
X166350000Y-99087500D03*
X166350000Y-101162500D03*
%TD*%
D25*
%TO.C,R46*%
X124737500Y-78650000D03*
X126562500Y-78650000D03*
%TD*%
D14*
%TO.C,R24*%
X155112500Y-96907388D03*
X155112500Y-95082388D03*
%TD*%
D40*
%TO.C,U9*%
X122575000Y-115845000D03*
X122575000Y-117115000D03*
X122575000Y-118385000D03*
X122575000Y-119655000D03*
X127525000Y-119655000D03*
X127525000Y-118385000D03*
X127525000Y-117115000D03*
X127525000Y-115845000D03*
%TD*%
D49*
%TO.C,J3*%
X182128700Y-90045500D03*
X182128700Y-84045500D03*
X177428700Y-87045500D03*
%TD*%
D19*
%TO.C,C85*%
X119150000Y-114887500D03*
X119150000Y-116612500D03*
%TD*%
D37*
%TO.C,U2*%
X170437500Y-98650000D03*
X170437500Y-99300000D03*
X170437500Y-99950000D03*
X170437500Y-100600000D03*
X174662500Y-100600000D03*
X174662500Y-99950000D03*
X174662500Y-99300000D03*
X174662500Y-98650000D03*
%TD*%
D14*
%TO.C,R37*%
X152250000Y-130262500D03*
X152250000Y-128437500D03*
%TD*%
%TO.C,R21*%
X157362500Y-100612500D03*
X157362500Y-98787500D03*
%TD*%
D16*
%TO.C,C77*%
X128650000Y-106712500D03*
X128650000Y-104987500D03*
%TD*%
D33*
%TO.C,C75*%
X122462500Y-106800000D03*
X120737500Y-106800000D03*
%TD*%
%TO.C,C82*%
X117312500Y-124450000D03*
X115587500Y-124450000D03*
%TD*%
D16*
%TO.C,C41*%
X152150000Y-91212500D03*
X152150000Y-89487500D03*
%TD*%
D50*
%TO.C,X1*%
X132550000Y-105500000D03*
D51*
X132550000Y-100775000D03*
%TD*%
D52*
%TO.C,FB5*%
X109250000Y-135137500D03*
X109250000Y-133562500D03*
%TD*%
D34*
%TO.C,TP1*%
X173750000Y-93150000D03*
X173750000Y-90610000D03*
%TD*%
D22*
%TO.C,R10*%
X171762500Y-135500000D03*
X169937500Y-135500000D03*
%TD*%
D14*
%TO.C,R36*%
X149750000Y-130262500D03*
X149750000Y-128437500D03*
%TD*%
D19*
%TO.C,C14*%
X153112500Y-95132388D03*
X153112500Y-96857388D03*
%TD*%
D27*
%TO.C,U15*%
X119000000Y-132400000D03*
X119000000Y-131130000D03*
X119000000Y-129860000D03*
X119000000Y-128590000D03*
X114050000Y-128590000D03*
X114050000Y-129860000D03*
X114050000Y-131130000D03*
X114050000Y-132400000D03*
%TD*%
D21*
%TO.C,C17*%
X177500000Y-107437500D03*
X177500000Y-105362500D03*
%TD*%
D17*
%TO.C,J10*%
X166825000Y-136050000D03*
D18*
X164285000Y-136050000D03*
%TD*%
D25*
%TO.C,R16*%
X173037500Y-121650000D03*
X174862500Y-121650000D03*
%TD*%
D13*
%TO.C,R59*%
X132750000Y-108237500D03*
X132750000Y-110062500D03*
%TD*%
D53*
%TO.C,C54*%
X154400000Y-83450000D03*
X152325000Y-83450000D03*
%TD*%
D25*
%TO.C,R53*%
X124837500Y-104350000D03*
X126662500Y-104350000D03*
%TD*%
D54*
X107500000Y-135800000D03*
X107500000Y-138500000D03*
X103000000Y-133100000D03*
X107500000Y-130600000D03*
X107500000Y-128100000D03*
X107500000Y-133100000D03*
X107500000Y-126200000D03*
X104900000Y-138500000D03*
X103000000Y-126200000D03*
X103000000Y-130600000D03*
X104900000Y-136600000D03*
X104900000Y-134400000D03*
X103000000Y-128100000D03*
X107500000Y-124300000D03*
X103000000Y-124300000D03*
X114900000Y-97300000D03*
X102000000Y-87200000D03*
X104900000Y-87200000D03*
X104900000Y-100300000D03*
X102000000Y-100300000D03*
X99400000Y-109000000D03*
X101800000Y-113600000D03*
X107600000Y-109600000D03*
X115700000Y-110100000D03*
X117800000Y-81000000D03*
X114900000Y-81000000D03*
X117800000Y-103800000D03*
X114900000Y-103800000D03*
D55*
X123900000Y-104350000D03*
D54*
X113700000Y-116500000D03*
D55*
X95400000Y-118500000D03*
X95400000Y-120300000D03*
X116500000Y-92800000D03*
X116500000Y-91700000D03*
D54*
X120500000Y-103500000D03*
X120500000Y-99700000D03*
X132650000Y-98050000D03*
X132650000Y-85750000D03*
X133850000Y-79050000D03*
X131450000Y-79050000D03*
X159950000Y-90350000D03*
X159950000Y-88450000D03*
D55*
X138769000Y-120450000D03*
X131850000Y-121550000D03*
X140506000Y-120450000D03*
X130050000Y-121550000D03*
X139250000Y-117950000D03*
X139750000Y-113750000D03*
X139376710Y-100223290D03*
X139350000Y-98150000D03*
X138676710Y-99523290D03*
X138650000Y-97603420D03*
X123550000Y-106350000D03*
D54*
X122600000Y-101200000D03*
X121050000Y-85850000D03*
X149850000Y-102750000D03*
X147750000Y-118650000D03*
X116550000Y-128550000D03*
X149450000Y-116050000D03*
X118950000Y-124450000D03*
X176150000Y-82950000D03*
X156050000Y-90750000D03*
X129450000Y-124050000D03*
X130650000Y-84050000D03*
X152550000Y-98850000D03*
X164250000Y-81750000D03*
X124350000Y-119650000D03*
X135150000Y-106250000D03*
D55*
X118750000Y-137850000D03*
D54*
X120150000Y-117650000D03*
X180350000Y-99350000D03*
X160750000Y-138150000D03*
X146250000Y-126150000D03*
X165250000Y-127150000D03*
X177950000Y-93550000D03*
X151050000Y-112350000D03*
X177250000Y-124650000D03*
X185850000Y-86750000D03*
D55*
X125500000Y-137850000D03*
D54*
X162750000Y-127850000D03*
X135050000Y-81650000D03*
D55*
X150450000Y-137850000D03*
D54*
X169650000Y-111550000D03*
D55*
X121000000Y-137850000D03*
D54*
X171750000Y-138150000D03*
X128650000Y-95950000D03*
X181650000Y-109250000D03*
X142750000Y-133750000D03*
X110450000Y-123650000D03*
D55*
X114250000Y-137850000D03*
X127750000Y-137850000D03*
D54*
X157550000Y-90750000D03*
X153050000Y-93350000D03*
D55*
X116500000Y-137850000D03*
D54*
X174750000Y-138150000D03*
X151050000Y-83550000D03*
X113350000Y-135550000D03*
D55*
X124650000Y-113950000D03*
D54*
X171150000Y-102650000D03*
X147850000Y-112350000D03*
D55*
X128550000Y-131250000D03*
D54*
X154950000Y-101950000D03*
D55*
X123450000Y-113950000D03*
D54*
X135850000Y-123350000D03*
X132450000Y-119650000D03*
X118950000Y-126850000D03*
X186050000Y-102250000D03*
X166350000Y-102650000D03*
X148250000Y-132650000D03*
X145350000Y-113550000D03*
X153550000Y-79550000D03*
D55*
X130000000Y-137850000D03*
D54*
X150650000Y-86850000D03*
X179650000Y-102350000D03*
X189550000Y-98950000D03*
X167250000Y-131650000D03*
X180750000Y-118650000D03*
X147750000Y-120650000D03*
X167850000Y-109950000D03*
X134450000Y-135350000D03*
X162750000Y-109150000D03*
X161250000Y-102550000D03*
X130150000Y-113450000D03*
D55*
X124850000Y-127650000D03*
D54*
X140250000Y-85250000D03*
X178250000Y-121150000D03*
D55*
X139200000Y-137850000D03*
D54*
X176250000Y-134650000D03*
D55*
X145950000Y-137850000D03*
D54*
X173850000Y-85550000D03*
X167750000Y-117850000D03*
D55*
X123650000Y-126450000D03*
D54*
X165750000Y-138150000D03*
X176250000Y-103850000D03*
X111550000Y-135550000D03*
D55*
X121050000Y-113950000D03*
D54*
X158750000Y-125650000D03*
X142850000Y-124350000D03*
X171450000Y-93450000D03*
X132050000Y-113450000D03*
X184550000Y-80250000D03*
D55*
X129950000Y-126850000D03*
D54*
X130050000Y-136150000D03*
X158350000Y-110050000D03*
X113050000Y-123650000D03*
X172150000Y-111550000D03*
D55*
X126850000Y-131250000D03*
D54*
X151050000Y-114750000D03*
X179350000Y-80250000D03*
X164150000Y-102650000D03*
D55*
X143700000Y-137850000D03*
D54*
X167750000Y-126650000D03*
X159550000Y-114550000D03*
X125650000Y-129450000D03*
X142450000Y-108850000D03*
X185850000Y-82450000D03*
D55*
X148200000Y-137850000D03*
X136950000Y-137850000D03*
D54*
X148350000Y-80650000D03*
D55*
X122250000Y-113950000D03*
D54*
X162550000Y-117550000D03*
X157350000Y-81150000D03*
X136050000Y-133650000D03*
X132850000Y-133650000D03*
X134950000Y-101350000D03*
X128800000Y-102300000D03*
X160250000Y-121150000D03*
X119950000Y-133950000D03*
X165150000Y-115850000D03*
X168750000Y-138150000D03*
X163250000Y-138150000D03*
D55*
X141450000Y-137850000D03*
D54*
X128250000Y-113450000D03*
D55*
X112650000Y-124950000D03*
D54*
X153350000Y-136150000D03*
X152150000Y-108050000D03*
D55*
X128650000Y-128050000D03*
D54*
X170250000Y-95250000D03*
X145750000Y-120650000D03*
X178250000Y-116150000D03*
X155850000Y-110050000D03*
X129000000Y-100700000D03*
X120850000Y-122450000D03*
X163250000Y-134150000D03*
X140250000Y-108950000D03*
X148850000Y-136150000D03*
X173750000Y-134650000D03*
X113350000Y-133650000D03*
X188150000Y-102150000D03*
X179650000Y-96750000D03*
X188250000Y-89650000D03*
X153550000Y-103650000D03*
D55*
X123250000Y-137850000D03*
X152700000Y-137850000D03*
D54*
X161750000Y-135650000D03*
D55*
X148250000Y-91950000D03*
D54*
X133950000Y-118150000D03*
D55*
X125950000Y-113950000D03*
D54*
X148750000Y-83550000D03*
X147350000Y-102650000D03*
D55*
X130050000Y-128050000D03*
D54*
X141950000Y-127250000D03*
X144150000Y-119450000D03*
X168650000Y-102650000D03*
X136650000Y-113450000D03*
X182050000Y-80250000D03*
X129550000Y-120550000D03*
X173950000Y-109950000D03*
X138150000Y-124150000D03*
X171750000Y-121750000D03*
X149450000Y-108050000D03*
X159350000Y-101950000D03*
X137850000Y-101250000D03*
X139650000Y-128750000D03*
X122950000Y-124950000D03*
X160250000Y-129150000D03*
X160250000Y-132150000D03*
D55*
X131697756Y-110855664D03*
X131700000Y-111850000D03*
D54*
X183250000Y-121150000D03*
X183250000Y-116150000D03*
X119550000Y-96150000D03*
X119550000Y-85850000D03*
D56*
X93500000Y-76700000D02*
X190500000Y-76700000D01*
X190500000Y-139700000D01*
X93500000Y-139700000D01*
X93500000Y-76700000D01*
M02*
